<svg width="148" height="40" viewBox="0 0 148 40" fill="none" xmlns="http://www.w3.org/2000/svg">
<mask id="mask0_577_684" style="mask-type:luminance" maskUnits="userSpaceOnUse" x="0" y="0" width="144" height="40">
<path d="M143.043 0.737305H0.782715V39.2627H143.043V0.737305Z" fill="white"/>
</mask>
<g mask="url(#mask0_577_684)">
<path d="M60.5513 11.5068C59.5529 11.4959 58.5643 11.7047 57.6585 12.1179C56.8101 12.5002 56.0674 13.0772 55.4927 13.8002V11.7451H51.2515V28.2514H55.4927V19.1343C55.4927 17.8232 55.831 16.8153 56.5074 16.1104C57.1836 15.4055 58.1075 15.0526 59.279 15.0516C60.4296 15.0516 61.3386 15.4045 62.0054 16.1104C62.6724 16.8162 63.006 17.8242 63.006 19.1343V28.2514H67.2472V18.5674C67.2472 16.3437 66.6311 14.611 65.3986 13.3693C64.1662 12.1276 62.5503 11.5068 60.5513 11.5068Z" fill="#265DF5"/>
<path d="M82.8298 14.0979C82.2306 13.3144 81.4602 12.6732 80.5754 12.2215C79.636 11.7254 78.5407 11.4768 77.2894 11.4759C75.9179 11.459 74.5691 11.8205 73.3961 12.5194C72.2111 13.2388 71.2557 14.2712 70.6385 15.4989C69.9621 16.7923 69.624 18.2705 69.624 19.9336C69.624 21.6232 69.9621 23.118 70.6385 24.4179C71.2572 25.6562 72.2115 26.7026 73.3961 27.4417C74.5526 28.1556 75.8932 28.5278 77.2585 28.5144C78.4112 28.5381 79.5517 28.277 80.5754 27.7549C81.4725 27.301 82.2457 26.6418 82.8298 25.8329V28.247H87.1022V11.7448H82.8298V14.0979ZM82.2239 22.6053C81.8472 23.299 81.2805 23.875 80.5881 24.2683C79.9166 24.6513 79.1535 24.8516 78.3772 24.8489C77.6127 24.8503 76.8629 24.6441 76.21 24.253C75.5171 23.8382 74.9518 23.2462 74.5742 22.5401C74.1461 21.7366 73.9326 20.8392 73.954 19.932C73.954 18.9398 74.1607 18.0811 74.5742 17.3559C74.8552 16.8556 75.2349 16.4154 75.691 16.0613C76.1474 15.7071 76.6707 15.4461 77.2308 15.2934C77.7909 15.1407 78.3763 15.0995 78.9528 15.1721C79.5292 15.2448 80.0851 15.4298 80.5881 15.7165C81.2805 16.1098 81.8472 16.6859 82.2239 17.3795C82.6279 18.1047 82.8298 18.9735 82.8298 19.9861C82.8298 20.9987 82.6279 21.8718 82.2239 22.6053Z" fill="#265DF5"/>
<path d="M101.514 20.8387C101.514 22.1496 101.181 23.1576 100.514 23.8625C99.8471 24.5675 98.9284 24.9198 97.7579 24.9198C96.6062 24.9198 95.6974 24.5675 95.0313 23.8625C94.3652 23.1576 94.0318 22.1496 94.031 20.8387V11.745H89.7896V21.4346C89.7896 22.9054 90.0775 24.1716 90.6533 25.233C91.1853 26.2518 92.0133 27.092 93.0318 27.6471C94.1029 28.208 95.3019 28.49 96.515 28.466C97.5039 28.4751 98.4823 28.2664 99.3784 27.8549C100.221 27.4767 100.955 26.898 101.514 26.1711V28.25H105.785V11.7505H101.514V20.8387Z" fill="#265DF5"/>
<path d="M123.863 11.7573H118.349L112.714 18.7597V6.21545H108.473V28.2637H112.714V21.232L118.409 28.2637H123.923L116.47 20.0403L123.863 11.7573Z" fill="#265DF5"/>
<path d="M130.125 14.3185V11.7451H125.881V28.2569H130.122V20.0335C130.122 18.5036 130.46 17.431 131.137 16.8157C131.813 16.2004 132.818 15.8923 134.152 15.8914H135.279V11.5122C134.244 11.4881 133.221 11.7352 132.316 12.2284C131.41 12.7216 130.654 13.443 130.125 14.3185Z" fill="#265DF5"/>
<path d="M141.5 11.745H137.259V28.2582H141.5V11.745Z" fill="#265DF5"/>
<path d="M139.38 9.77587C140.78 9.77587 141.916 8.65908 141.916 7.28143C141.916 5.90378 140.78 4.78699 139.38 4.78699C137.979 4.78699 136.843 5.90378 136.843 7.28143C136.843 8.65908 137.979 9.77587 139.38 9.77587Z" fill="#265DF5"/>
<path d="M20.3689 39.2627C31.186 39.2627 39.9551 30.6385 39.9551 20C39.9551 9.36151 31.186 0.737305 20.3689 0.737305C9.55173 0.737305 0.782715 9.36151 0.782715 20C0.782715 30.6385 9.55173 39.2627 20.3689 39.2627Z" fill="#265DF5"/>
<path d="M26.2586 27.1357L26.2149 29.0882L26.0879 34.7257V34.9432C16.402 26.6991 14.752 24.6882 14.4659 24.0771L14.4561 24.0564C14.4216 23.9414 14.4135 23.8201 14.4321 23.7017C14.439 23.6576 14.4484 23.6142 14.4603 23.5714C14.4702 23.5368 14.48 23.5034 14.4927 23.4674C14.5971 23.1977 14.7451 22.9466 14.9309 22.7233C15.0641 22.5541 15.2091 22.3944 15.3649 22.2452C15.6982 21.9211 16.0552 21.6213 16.433 21.3485C16.6204 21.21 16.8163 21.0713 17.0234 20.9328C17.4236 20.664 17.8562 20.3952 18.3043 20.1332C21.7847 23.3262 26.2022 27.0844 26.2586 27.1357Z" fill="url(#paint0_linear_577_684)"/>
<path d="M26.3865 8.61731L26.3428 10.5768L26.3202 11.5469L26.2753 13.4967L26.2526 14.4751L26.2089 16.4263C26.14 16.454 21.7224 18.1391 18.3181 20.1306C17.8701 20.3924 17.4389 20.6614 17.0373 20.9302C16.8316 21.0688 16.6343 21.2073 16.4469 21.346C16.0696 21.6194 15.7127 21.9191 15.3788 22.2425C15.2233 22.3921 15.0783 22.5517 14.9448 22.7207C14.6376 23.106 14.453 23.4842 14.4263 23.8404L14.4629 22.212V22.2009L14.47 21.9487V21.8572L14.4995 20.8304L14.5559 18.7947L14.5827 17.7997L14.639 15.7819C15.3394 12.9576 25.2296 9.06492 26.3865 8.61731Z" fill="white"/>
<path d="M17.2682 10.7761C18.8736 10.7761 20.1752 9.49608 20.1752 7.91715C20.1752 6.33821 18.8736 5.05823 17.2682 5.05823C15.6628 5.05823 14.3613 6.33821 14.3613 7.91715C14.3613 9.49608 15.6628 10.7761 17.2682 10.7761Z" fill="white"/>
</g>
<defs>
<linearGradient id="paint0_linear_577_684" x1="24.2562" y1="30.0929" x2="12.9859" y2="16.8737" gradientUnits="userSpaceOnUse">
<stop stop-color="white"/>
<stop offset="1" stop-color="#265DF5"/>
</linearGradient>
</defs>
</svg>
